<svg xmlns="http://www.w3.org/2000/svg" width="360" height="260" viewBox="0 0 360 260" role="img" aria-label="Puppy waving illustration">
  <rect width="360" height="260" rx="40" fill="#f5ebdd" />
  <circle cx="180" cy="150" r="92" fill="#f7a9c4" />
  <ellipse cx="112" cy="108" rx="44" ry="58" fill="#f38fb5" />
  <ellipse cx="248" cy="108" rx="44" ry="58" fill="#f38fb5" />
  <circle cx="152" cy="150" r="14" fill="#1c1c22" />
  <circle cx="208" cy="150" r="14" fill="#1c1c22" />
  <circle cx="156" cy="146" r="5" fill="#ffffff" />
  <circle cx="212" cy="146" r="5" fill="#ffffff" />
  <ellipse cx="180" cy="190" rx="20" ry="14" fill="#1c1c22" />
  <path d="M148 210c10 12 22 18 32 18s22-6 32-18" fill="none" stroke="#1c1c22" stroke-width="7" stroke-linecap="round" />
  <path d="M300 90c-6-14-22-20-32-16" fill="none" stroke="#6ec9f5" stroke-width="6" stroke-linecap="round" />
  <path d="M300 120c-6-14-22-20-32-16" fill="none" stroke="#6ec9f5" stroke-width="6" stroke-linecap="round" />
</svg>
